<svg xmlns="http://www.w3.org/2000/svg" width="242.7733" height="54.5067"><g fill="#34373e"><path d="M24.5355 23.2645c-.7366 0-1.3298.5963-1.3298 1.3302 0 .7333.5932 1.3286 1.3298 1.3286.7333 0 1.329-.5953 1.329-1.3286 0-.734-.5957-1.3302-1.329-1.3302"/><path d="M27.888 22.526c0-.7344-.5968-1.332-1.3312-1.332-.7333 0-1.3276.5976-1.3276 1.332 0 .7323.5943 1.3276 1.3276 1.3276.7344 0 1.3312-.5953 1.3312-1.3276m0 4.1395c0-.7334-.5968-1.3307-1.3312-1.3307-.7333 0-1.3276.5973-1.3276 1.3307 0 .7344.5943 1.3266 1.3276 1.3266.7344 0 1.3312-.592 1.3312-1.326m.9604-3.466c-.7317 0-1.329.597-1.329 1.331 0 .733.5973 1.329 1.329 1.329.735 0 1.3308-.596 1.3308-1.328 0-.734-.596-1.33-1.3308-1.33m2.501-2.089c-.7322 0-1.328.599-1.328 1.332 0 .733.596 1.329 1.328 1.329.734 0 1.3323-.595 1.3323-1.328 0-.732-.5984-1.331-1.3322-1.331m-.0192 4.269c-.732 0-1.3298.598-1.3298 1.336 0 .729.598 1.323 1.3298 1.323.7337 0 1.3306-.594 1.3306-1.323 0-.737-.597-1.335-1.331-1.335m-2.572 4.727c.734 0 1.331-.599 1.331-1.329 0-.732-.597-1.331-1.331-1.331-.733 0-1.329.599-1.329 1.331 0 .731.595 1.33 1.328 1.33m-.743 1.247c0-.734-.598-1.329-1.332-1.329-.733 0-1.329.595-1.329 1.329 0 .732.596 1.33 1.329 1.33.734 0 1.332-.598 1.332-1.33m-3.403 4.155c.735 0 1.332-.598 1.332-1.33 0-.734-.598-1.332-1.332-1.332-.731 0-1.327.598-1.327 1.332 0 .733.596 1.331 1.327 1.331m9.549-12.308c-.734 0-1.331.598-1.331 1.332s.597 1.329 1.33 1.329c.733 0 1.33-.596 1.33-1.33s-.597-1.332-1.33-1.332m-.138 4.444c-.733 0-1.33.598-1.33 1.328 0 .734.596 1.331 1.329 1.331s1.33-.596 1.33-1.33c0-.731-.597-1.328-1.331-1.328m3.109-2.002c-.733 0-1.329.599-1.329 1.33 0 .733.596 1.33 1.328 1.33.733 0 1.33-.597 1.33-1.33 0-.731-.597-1.33-1.331-1.33m.971 5.834c0-.737-.597-1.332-1.331-1.332-.732 0-1.329.595-1.329 1.332 0 .73.597 1.326 1.329 1.326.734 0 1.331-.595 1.331-1.325m-3.221 1.992c0-.733-.598-1.328-1.331-1.328s-1.331.595-1.331 1.329c0 .733.598 1.328 1.33 1.328.733 0 1.33-.595 1.33-1.328m-5.916 1.866c.734 0 1.332-.597 1.332-1.331 0-.735-.598-1.332-1.332-1.332-.732 0-1.328.597-1.328 1.332 0 .734.596 1.331 1.328 1.331m-2.081 3.109c.734 0 1.331-.594 1.331-1.328 0-.734-.598-1.33-1.332-1.33-.731 0-1.328.596-1.328 1.33 0 .734.597 1.329 1.328 1.329m-2.287 3.302c.736 0 1.333-.593 1.333-1.329 0-.731-.597-1.33-1.333-1.33-.732 0-1.327.599-1.327 1.331 0 .736.595 1.33 1.327 1.33m7.794-10.7c0-.733-.598-1.329-1.332-1.329-.732 0-1.328.596-1.328 1.329 0 .732.595 1.329 1.327 1.329.734 0 1.332-.598 1.332-1.329m7.858-2.971c-.733 0-1.329.596-1.329 1.326 0 .734.595 1.329 1.328 1.329.734 0 1.33-.595 1.33-1.329 0-.73-.596-1.327-1.331-1.327m-.494 4.79c-.734 0-1.33.597-1.33 1.333 0 .729.597 1.326 1.331 1.326.732 0 1.328-.598 1.328-1.327 0-.736-.596-1.333-1.328-1.333m3.275 2.856c-.734 0-1.329.598-1.329 1.332 0 .734.596 1.329 1.329 1.329.734 0 1.332-.595 1.332-1.329 0-.733-.599-1.331-1.332-1.331m-4.031 1.87c-.732 0-1.329.597-1.329 1.331s.597 1.329 1.328 1.329c.736 0 1.332-.595 1.332-1.329s-.596-1.331-1.332-1.331M37.536 36.2c0-.732-.597-1.332-1.33-1.332-.734 0-1.33.6-1.33 1.332 0 .734.596 1.3294 1.33 1.3294.732 0 1.329-.596 1.329-1.33m-3.3086 4.871c.7337 0 1.3305-.598 1.3305-1.3296 0-.733-.597-1.332-1.331-1.332s-1.33.599-1.33 1.332c0 .732.595 1.33 1.329 1.33m-4.83.5c.736 0 1.332-.593 1.332-1.329 0-.733-.596-1.33-1.332-1.33-.733 0-1.327.598-1.327 1.331 0 .736.594 1.33 1.326 1.33m3.409-4.786c0-.733-.596-1.33-1.329-1.33-.735 0-1.329.597-1.329 1.331 0 .733.594 1.327 1.329 1.327.733 0 1.329-.593 1.329-1.326m9.279 3.93c-.735 0-1.33.598-1.33 1.329 0 .734.595 1.332 1.329 1.332.732 0 1.331-.598 1.331-1.332 0-.732-.599-1.329-1.332-1.329m-5.049.963c-.733 0-1.329.596-1.329 1.33 0 .732.596 1.327 1.328 1.327.734 0 1.332-.595 1.332-1.327 0-.734-.598-1.33-1.332-1.33m-2.178 3.871c-.733 0-1.33.596-1.33 1.331 0 .732.597 1.328 1.33 1.328.731 0 1.33-.596 1.33-1.328 0-.734-.599-1.33-1.331-1.33m-2.841-3.328c-.734 0-1.332.595-1.332 1.33 0 .732.598 1.332 1.331 1.332s1.331-.599 1.331-1.331c0-.735-.598-1.33-1.331-1.33m-2.306 3.996c-.735 0-1.33.596-1.33 1.332 0 .732.595 1.329 1.33 1.329.732 0 1.331-.598 1.331-1.33 0-.736-.599-1.332-1.331-1.332M27 42.555c-.733 0-1.329.6-1.329 1.3302 0 .733.596 1.331 1.329 1.331.734 0 1.3306-.598 1.3306-1.331 0-.73-.5967-1.331-1.3306-1.331m-2.387 3.919c-.734 0-1.329.6-1.329 1.33 0 .735.596 1.329 1.33 1.329.735 0 1.331-.594 1.331-1.33 0-.731-.596-1.331-1.331-1.331m-2.551-3.919c-.733 0-1.329.5973-1.329 1.331 0 .733.595 1.331 1.328 1.331.733 0 1.332-.598 1.332-1.33 0-.733-.599-1.331-1.3322-1.331m-2.672 3.679c-.733 0-1.3274.596-1.3274 1.332 0 .7303.5948 1.328 1.328 1.328.735 0 1.331-.5977 1.331-1.328 0-.736-.596-1.3317-1.331-1.3317m-5.011-.687c-.733 0-1.328.5965-1.328 1.3335 0 .731.595 1.327 1.3284 1.327.7343 0 1.3312-.596 1.3312-1.327 0-.737-.597-1.333-1.3315-1.333m29.195-14.866c-.732 0-1.3286.5974-1.3286 1.332 0 .7326.596 1.3295 1.328 1.3295.736 0 1.331-.597 1.331-1.3296 0-.735-.595-1.332-1.331-1.332m3.327 2.743c-.732 0-1.329.597-1.329 1.329 0 .736.597 1.332 1.328 1.332.735 0 1.333-.597 1.333-1.333 0-.732-.598-1.329-1.333-1.329m.672-5.05c-.734 0-1.33.592-1.33 1.328 0 .733.596 1.328 1.33 1.328.733 0 1.329-.595 1.329-1.328 0-.736-.596-1.328-1.329-1.328m-3.696-2.642c-.733 0-1.328.599-1.328 1.331 0 .733.595 1.329 1.328 1.329.734 0 1.332-.596 1.332-1.329 0-.732-.598-1.332-1.332-1.332m3.918-2.517c-.734 0-1.326.598-1.326 1.333 0 .733.593 1.328 1.327 1.328s1.332-.595 1.332-1.328c0-.735-.598-1.333-1.332-1.333m-3.92-2.402c-.731 0-1.326.598-1.326 1.331 0 .732.595 1.329 1.326 1.329.735 0 1.331-.597 1.331-1.329 0-.733-.596-1.331-1.331-1.331m2.352-1.404c0 .734.596 1.33 1.329 1.33s1.33-.596 1.33-1.33c0-.733-.597-1.332-1.331-1.332-.733 0-1.329.599-1.329 1.332m-4.009-2.295c0 .734.597 1.329 1.33 1.329.735 0 1.331-.596 1.331-1.33 0-.735-.597-1.332-1.332-1.332-.732 0-1.33.597-1.33 1.331m4.682-1.49c.735 0 1.331-.598 1.331-1.33 0-.736-.596-1.332-1.331-1.332-.732 0-1.328.596-1.328 1.332 0 .732.596 1.329 1.328 1.329m-5.213-3.505c0 .73.596 1.327 1.327 1.327.736 0 1.332-.597 1.332-1.327 0-.736-.596-1.332-1.332-1.332-.731 0-1.327.596-1.327 1.331m.39-3.651c.734 0 1.331-.597 1.331-1.329 0-.734-.597-1.33-1.331-1.33s-1.33.596-1.33 1.33c0 .732.595 1.329 1.329 1.329m-4.392 1.749c0 .733.597 1.328 1.329 1.328.731 0 1.33-.596 1.33-1.329s-.599-1.332-1.331-1.332c-.733 0-1.33.599-1.33 1.332m-1.506 1.412c-.732 0-1.328.596-1.328 1.331 0 .731.596 1.33 1.327 1.33.735 0 1.333-.599 1.333-1.33 0-.735-.598-1.331-1.333-1.331m-3.968 4.039c0 .733.596 1.33 1.33 1.33.734 0 1.331-.597 1.331-1.33 0-.732-.597-1.331-1.331-1.331s-1.329.599-1.329 1.331m-.716-4.625c-.734 0-1.329.595-1.329 1.331 0 .734.595 1.326 1.328 1.326.734 0 1.331-.593 1.331-1.327 0-.736-.597-1.331-1.331-1.331M29.38 7.6c-.7326 0-1.33.599-1.33 1.331 0 .734.5974 1.33 1.3296 1.33.734 0 1.329-.596 1.329-1.33 0-.732-.595-1.331-1.329-1.331m-2.484 3.078c-.733 0-1.33.596-1.33 1.332 0 .733.597 1.33 1.33 1.33.732 0 1.33-.597 1.33-1.3298 0-.736-.599-1.332-1.33-1.332m-4.732.029c-.734 0-1.329.5974-1.329 1.333 0 .7333.595 1.329 1.329 1.329.733 0 1.332-.5957 1.332-1.329 0-.735-.599-1.3327-1.332-1.3327m-2.002 3.122c-.733 0-1.328.598-1.328 1.332 0 .7334.596 1.327 1.328 1.327.733 0 1.33-.5936 1.33-1.327 0-.734-.597-1.332-1.33-1.332m.902 4.0056c0 .731.596 1.327 1.329 1.327s1.331-.596 1.331-1.327c0-.736-.598-1.333-1.331-1.333-.734 0-1.33.597-1.33 1.332m-4.316.261c0 .734.597 1.332 1.33 1.332.734 0 1.33-.598 1.33-1.332 0-.733-.595-1.331-1.329-1.331s-1.331.598-1.331 1.331m-1.633.757c-.733 0-1.329.598-1.329 1.33 0 .734.596 1.33 1.329 1.33.734 0 1.33-.596 1.33-1.33 0-.732-.596-1.33-1.33-1.33M12 23.577c.7337 0 1.3326-.596 1.3326-1.328 0-.734-.599-1.332-1.332-1.332-.7337 0-1.329.5983-1.329 1.332 0 .732.5953 1.328 1.329 1.328m-.992-5.908c0 .7292.596 1.326 1.33 1.326.7342 0 1.329-.5968 1.329-1.326 0-.736-.595-1.333-1.3294-1.333-.734 0-1.3296.597-1.3296 1.333m-3.464 2.067c0 .733.596 1.328 1.327 1.328.735 0 1.3317-.595 1.3317-1.328 0-.7348-.597-1.3328-1.332-1.3328-.731 0-1.3274.598-1.3274 1.333m-2.315 3.709c.734 0 1.332-.597 1.332-1.328 0-.736-.598-1.331-1.333-1.331-.732 0-1.328.595-1.328 1.331 0 .731.596 1.328 1.328 1.328m-3.677-2.717c.732 0 1.331-.598 1.331-1.33 0-.736-.599-1.33-1.332-1.33-.732 0-1.328.594-1.328 1.33 0 .732.596 1.33 1.328 1.33m4.024-2.275c.735 0 1.331-.595 1.331-1.326 0-.736-.596-1.334-1.331-1.334-.733 0-1.328.598-1.328 1.334 0 .731.595 1.327 1.328 1.327M2.24 12.943c-.7325 0-1.329.595-1.329 1.332 0 .733.597 1.328 1.329 1.328s1.332-.595 1.332-1.328c0-.737-.6-1.332-1.332-1.332m3.912.509c.734 0 1.331-.595 1.331-1.3285 0-.7353-.597-1.3315-1.331-1.3315-.7318 0-1.327.597-1.327 1.332 0 .734.5952 1.329 1.327 1.329m3.223.133c-.733 0-1.329.6-1.329 1.333 0 .732.596 1.331 1.329 1.331.735 0 1.3302-.598 1.3302-1.33 0-.733-.5957-1.333-1.331-1.333m2.2656-.638c0 .7338.596 1.33 1.33 1.33.733 0 1.331-.596 1.331-1.3294 0-.7334-.598-1.332-1.331-1.332-.734 0-1.3296.5986-1.3296 1.332m2.6016 2.726c0 .731.596 1.33 1.328 1.33.735 0 1.3326-.599 1.3326-1.33 0-.733-.5972-1.331-1.332-1.331-.7323 0-1.328.5984-1.328 1.331M8.712 25.856c.7333 0 1.3286-.5958 1.3286-1.3265 0-.7366-.595-1.3324-1.3286-1.3324-.735 0-1.3293.596-1.3293 1.333 0 .731.5944 1.327 1.3293 1.327m15.909-12.18c-.734 0-1.3286.597-1.3286 1.333 0 .733.5946 1.329 1.3285 1.329.733 0 1.332-.595 1.332-1.328 0-.736-.599-1.332-1.333-1.332m9.6-5.624c-.733 0-1.33.598-1.33 1.332 0 .734.597 1.328 1.33 1.328.732 0 1.33-.594 1.33-1.328 0-.734-.598-1.331-1.33-1.331m1.493-1.944c0 .734.595 1.33 1.328 1.33.732 0 1.33-.596 1.33-1.33 0-.733-.599-1.331-1.331-1.331-.733 0-1.328.599-1.328 1.332m-3.682.807c.734 0 1.331-.596 1.331-1.329 0-.734-.597-1.332-1.331-1.332-.733 0-1.329.598-1.329 1.332 0 .733.596 1.329 1.33 1.329m2.837-3.331c.734 0 1.33-.596 1.33-1.327 0-.735-.596-1.333-1.33-1.333-.733 0-1.33.598-1.33 1.334 0 .731.597 1.327 1.33 1.327m-5.146-.651c.734 0 1.328-.595 1.328-1.329.002-.738-.592-1.333-1.326-1.333-.736 0-1.331.595-1.331 1.332 0 .734.595 1.33 1.331 1.33m-5.122-.269c.734 0 1.331-.596 1.331-1.328 0-.734-.597-1.333-1.332-1.333-.732 0-1.328.599-1.328 1.333 0 .732.597 1.328 1.329 1.328m-5.217.256c.735 0 1.331-.599 1.331-1.329 0-.736-.597-1.332-1.331-1.332-.733 0-1.329.596-1.329 1.333 0 .731.597 1.33 1.33 1.33m-5.008.677c.735 0 1.331-.596 1.331-1.329 0-.734-.596-1.332-1.332-1.332-.734 0-1.328.598-1.328 1.332 0 .733.594 1.329 1.328 1.329m7.652 3.004c.734 0 1.33-.599 1.33-1.33 0-.733-.597-1.331-1.331-1.331-.732 0-1.328.599-1.328 1.331 0 .731.596 1.33 1.328 1.33m-4.93.326c.734 0 1.331-.595 1.331-1.329 0-.733-.598-1.332-1.332-1.332-.734 0-1.329.599-1.329 1.333s.595 1.329 1.329 1.329m-2.182 1.142c-.731 0-1.329.596-1.329 1.33 0 .734.597 1.331 1.328 1.331.734 0 1.331-.597 1.331-1.331s-.597-1.329-1.332-1.329M10.11 11.56c.733 0 1.331-.5964 1.331-1.3297 0-.733-.598-1.3318-1.331-1.3318-.7332 0-1.3285.5983-1.3285 1.3317s.5953 1.33 1.3287 1.33M7.299 8.449c.7333 0 1.3312-.5963 1.3312-1.33 0-.7335-.598-1.3315-1.3312-1.3315-.7334 0-1.3303.598-1.3303 1.3314 0 .733.597 1.33 1.3303 1.33m4.8197-.991c.7334 0 1.3313-.597 1.3313-1.331 0-.733-.598-1.329-1.3313-1.329-.7338 0-1.3296.596-1.3296 1.328 0 .734.596 1.33 1.33 1.33m4.199 4.9c0 .732.597 1.327 1.329 1.327.735 0 1.331-.595 1.331-1.328 0-.735-.596-1.333-1.33-1.333-.732 0-1.329.598-1.329 1.332m3.389-4.771c-.732 0-1.327.597-1.327 1.33 0 .734.595 1.331 1.327 1.331s1.331-.597 1.331-1.331c0-.733-.599-1.33-1.331-1.33m7.291-.986c.733 0 1.331-.597 1.331-1.328 0-.736-.598-1.334-1.33-1.334-.733 0-1.33.598-1.33 1.334 0 .731.597 1.328 1.33 1.328m-2.388.782c-.732 0-1.327.597-1.327 1.332 0 .734.595 1.329 1.328 1.329.735 0 1.332-.595 1.332-1.329 0-.735-.597-1.332-1.332-1.332m7.735 10.702c0-.735-.596-1.33-1.33-1.33-.732 0-1.329.595-1.329 1.33 0 .734.597 1.33 1.329 1.33.734 0 1.331-.597 1.331-1.331m-3.557.963c-.731 0-1.327.596-1.327 1.331 0 .731.596 1.328 1.327 1.328.734 0 1.333-.597 1.333-1.328 0-.735-.599-1.331-1.333-1.331m-3.414-1.268c0 .732.597 1.328 1.329 1.328.735 0 1.333-.597 1.333-1.329 0-.733-.597-1.332-1.332-1.332-.732 0-1.328.599-1.328 1.332m-.78 1.186c-.732 0-1.328.595-1.328 1.328 0 .733.597 1.332 1.328 1.332.735 0 1.331-.599 1.331-1.332 0-.733-.596-1.329-1.331-1.329m-3.418 3.566c0 .732.596 1.328 1.33 1.328.733 0 1.331-.596 1.331-1.328 0-.735-.598-1.332-1.33-1.332-.734 0-1.33.597-1.33 1.332m-.799-3.454c-.73 0-1.326.596-1.326 1.331 0 .731.596 1.33 1.327 1.33.736 0 1.333-.599 1.333-1.33 0-.735-.597-1.332-1.333-1.332m-.119 6.81c.731 0 1.333-.595 1.333-1.329s-.602-1.332-1.333-1.332c-.735 0-1.33.598-1.33 1.331 0 .734.596 1.329 1.331 1.329m-2.485-2.073c.732 0 1.328-.597 1.328-1.329 0-.734-.596-1.333-1.328-1.333-.733 0-1.329.598-1.329 1.332 0 .732.596 1.329 1.329 1.329m.01 4.263c.734 0 1.333-.598 1.333-1.324 0-.738-.598-1.333-1.332-1.333-.731 0-1.329.595-1.329 1.333 0 .727.597 1.324 1.328 1.324m-2.811-2.219c.733 0 1.331-.598 1.331-1.331 0-.735-.598-1.33-1.331-1.33-.734 0-1.33.595-1.33 1.33 0 .733.596 1.331 1.33 1.331m.214 4.478c.732 0 1.329-.596 1.329-1.33 0-.733-.597-1.331-1.329-1.331-.736 0-1.33.598-1.33 1.331 0 .734.595 1.33 1.331 1.33m-3.183-2.033c.732 0 1.33-.6 1.33-1.333 0-.732-.598-1.331-1.33-1.331-.733 0-1.329.599-1.329 1.33 0 .733.596 1.333 1.329 1.333m.369 4.556c.735 0 1.331-.593 1.331-1.325 0-.735-.596-1.333-1.331-1.333-.732 0-1.33.598-1.33 1.333 0 .732.598 1.326 1.33 1.326m-2.997 2.72c.733 0 1.331-.598 1.331-1.33 0-.733-.598-1.334-1.331-1.334s-1.329.601-1.329 1.334c0 .732.597 1.33 1.33 1.33m-2.498-3.53c0-.736-.596-1.333-1.33-1.333-.732 0-1.329.598-1.329 1.334 0 .732.597 1.33 1.329 1.33.734 0 1.331-.597 1.331-1.329m-3.99-2.31c0-.737-.598-1.329-1.332-1.329-.734 0-1.329.592-1.329 1.329 0 .731.596 1.326 1.33 1.326.734 0 1.332-.595 1.332-1.326m2.336-1.318c.735 0 1.333-.598 1.333-1.331 0-.731-.598-1.33-1.332-1.33-.732 0-1.328.599-1.328 1.331 0 .733.596 1.331 1.328 1.331M1.328 25.86c.734 0 1.332-.596 1.332-1.326 0-.734-.599-1.3327-1.333-1.3327-.73 0-1.3285.5985-1.3285 1.3325 0 .7304.5984 1.3263 1.3286 1.3263m7.554 4.862c.734 0 1.332-.594 1.332-1.328 0-.736-.598-1.332-1.333-1.332-.732 0-1.328.597-1.328 1.333 0 .735.596 1.329 1.328 1.329M2.228 33.42c-.733 0-1.328.598-1.328 1.3297 0 .7356.595 1.331 1.328 1.331.7347 0 1.3316-.5954 1.3316-1.331 0-.7316-.597-1.3295-1.3317-1.3295m5.216 3.6474c0-.7333-.596-1.3296-1.332-1.3296-.732 0-1.328.596-1.328 1.3294 0 .735.596 1.33 1.328 1.33.736 0 1.332-.595 1.332-1.33m16.397-10.401c0-.733-.598-1.33-1.332-1.33-.734 0-1.33.5975-1.33 1.331 0 .7343.596 1.3265 1.329 1.3265s1.331-.592 1.331-1.327m.755 3.503c.733 0 1.331-.595 1.331-1.331 0-.731-.598-1.33-1.331-1.33-.734 0-1.33.599-1.33 1.33 0 .736.596 1.331 1.33 1.331m-.877 1.184c0-.734-.598-1.329-1.331-1.329-.735 0-1.33.595-1.33 1.329 0 .732.595 1.33 1.33 1.33.733 0 1.331-.598 1.331-1.33m-3.539 3.982c.734 0 1.33-.598 1.33-1.331 0-.736-.597-1.332-1.331-1.332-.735 0-1.329.596-1.329 1.332 0 .733.594 1.331 1.328 1.331m2.012 3.125c.733 0 1.33-.597 1.33-1.328 0-.737-.597-1.335-1.331-1.335-.733 0-1.328.598-1.328 1.334 0 .732.596 1.328 1.328 1.328m-2.466 3.098c.734 0 1.331-.595 1.331-1.329 0-.735-.597-1.333-1.331-1.333s-1.33.597-1.33 1.332c0 .734.595 1.329 1.329 1.329m-4.841-.503c.734 0 1.331-.598 1.331-1.33 0-.737-.598-1.333-1.332-1.333-.733 0-1.33.597-1.33 1.333 0 .732.597 1.33 1.33 1.33M12.99 37.52c.733 0 1.3304-.598 1.3304-1.3305 0-.7335-.597-1.331-1.3304-1.331-.734 0-1.329.5975-1.329 1.3308 0 .7326.5947 1.3306 1.3286 1.3306m4.652.578c.7326 0 1.3285-.596 1.3285-1.329 0-.731-.596-1.33-1.328-1.33-.734 0-1.331.599-1.331 1.329 0 .734.597 1.329 1.331 1.329m-.727-4.64c0-.734-.599-1.331-1.332-1.331-.732 0-1.329.597-1.329 1.331s.597 1.329 1.329 1.329c.734 0 1.332-.595 1.332-1.33m1.141-1.084c.735 0 1.332-.596 1.332-1.331 0-.733-.597-1.33-1.331-1.33-.732 0-1.328.597-1.328 1.33 0 .735.596 1.331 1.328 1.331m2.322-2.29c.735 0 1.331-.598 1.331-1.33 0-.733-.596-1.329-1.331-1.329-.731 0-1.328.596-1.328 1.329 0 .732.597 1.33 1.328 1.33m-8.95 8.848c0-.734-.599-1.33-1.332-1.33-.733 0-1.328.596-1.328 1.33 0 .732.595 1.33 1.328 1.33.733 0 1.332-.598 1.332-1.33m.648 2.741c-.731 0-1.33.595-1.33 1.33 0 .732.599 1.329 1.33 1.329.734 0 1.332-.598 1.332-1.329 0-.734-.598-1.33-1.332-1.33m-4.814-.968c-.735 0-1.331.596-1.331 1.328 0 .737.596 1.334 1.331 1.334.732 0 1.33-.597 1.33-1.334 0-.732-.598-1.328-1.329-1.328m9.819 1.514c-.733 0-1.329.595-1.329 1.329 0 .731.596 1.329 1.329 1.329.735 0 1.332-.598 1.332-1.33 0-.735-.597-1.33-1.332-1.33m11.886-28.374c-.731 0-1.329.597-1.329 1.331 0 .733.598 1.327 1.329 1.327.734 0 1.331-.595 1.331-1.328 0-.734-.597-1.331-1.331-1.331m9.416 1.108c0 .734.596 1.329 1.33 1.329.735 0 1.33-.595 1.33-1.329s-.594-1.333-1.329-1.333c-.734 0-1.33.599-1.33 1.333m-1.616 1.398c-.733 0-1.33.599-1.33 1.332 0 .733.597 1.328 1.33 1.328.733 0 1.33-.596 1.33-1.329s-.597-1.332-1.33-1.332m3.444 4.712c.735 0 1.331-.595 1.331-1.329s-.597-1.332-1.331-1.332c-.733 0-1.328.597-1.328 1.331s.596 1.329 1.329 1.329m.209 2.134c-.733 0-1.329.598-1.329 1.333 0 .732.597 1.328 1.33 1.328.734 0 1.33-.596 1.33-1.329 0-.735-.596-1.333-1.33-1.333m-4.671-.965c0 .731.596 1.326 1.331 1.326.732 0 1.328-.595 1.328-1.326 0-.736-.596-1.332-1.329-1.332-.735 0-1.331.596-1.331 1.332m-1.748-.724c.735 0 1.331-.597 1.331-1.328 0-.736-.596-1.3305-1.331-1.3305-.733 0-1.329.5946-1.329 1.33 0 .7316.596 1.328 1.329 1.328m37.944 23.38l-.016 6.084c-1.318.276-2.635.569-4.039.569-2.46 0-3.725-.883-4.453-1.644-.763-.798-1.646-2.152-1.646-4.714 0-2.271.814-3.658 1.351-4.334.244-.295.849-1.005 1.837-1.4555.433-.19 1.386-.502 2.668-.502 1.473 0 3.068.502 3.883 1.818.363.5755.432 1.215.467 1.4224h-1.87c-.052-.296-.087-.519-.207-.779-.591-1.127-2.186-1.127-2.463-1.127-.363 0-1.264.035-2.096.587-.313.212-.59.471-.798.764-.954 1.266-.971 2.91-.971 3.396 0 .349.017 1.387.346 2.392.155.468.536 1.424 1.698 2.115.399.244 1.213.624 2.391.624.573 0 1.093-.087 2.22-.346v-3.449h-2.773V44.88h4.469m7.994 1.368c-.016-.173-.016-.346-.034-.52-.052-.328-.123-1.056-.902-1.576-.486-.312-.936-.346-1.144-.346-.226 0-.625.018-1.092.311-.815.504-.954 1.231-1.109 2.149zm-4.246 1.232c.016.225.033.45.069.659.051.363.156 1.177.987 1.785.521.382.988.415 1.247.415.677 0 1.335-.329 1.664-.953.105-.191.192-.397.295-.832l1.612.018c-.137.674-.26 1.196-.675 1.753-.47.59-1.318 1.177-3.05 1.177-.417 0-1.404-.038-2.357-.781-1.127-.866-1.508-2.252-1.508-3.655 0-1.629.607-2.69 1.023-3.19.694-.851 1.82-1.283 2.93-1.283.642 0 1.126.155 1.368.244 1.492.57 1.993 1.975 2.133 2.511.172.676.172 1.422.172 2.133h-5.909m9.526-4.611l.068 1.039c1.144-1.004 1.491-1.143 3-1.249v1.701c-.122-.018-.556-.103-.937-.103-1.248 0-1.803.78-1.993 1.264-.122.328-.122.677-.138 1.021v4.75h-1.629V42.87h1.629m6.1.902c.241-.277.364-.38.519-.502.521-.383 1.353-.642 2.03-.642.363 0 1.091.086 1.837.641.175.137.363.295.692.606.867-.726 1.578-1.265 2.756-1.265s2.375.68 2.738 1.786c.175.468.175.991.175 1.526v5.406h-1.593V45.54c0-.035-.036-.415-.122-.6402-.243-.642-.884-1.007-1.559-1.007-.348 0-1.04.103-1.577.833-.451.59-.467 1.177-.467 1.908v4.694h-1.63c-.017-1.02-.017-2.044 0-3.05.017-.778.088-1.487-.104-2.996-.068-.227-.119-.399-.207-.59-.138-.295-.435-.833-1.335-.833-.607 0-1.16.261-1.559.694-.452.486-.521 1.007-.607 1.698v5.06H89.68v-8.439h1.5593l.0886.902m17.036 3.242c-.226 0-.815 0-1.404.206-.729.261-1.37.778-1.37 1.631 0 .968.815 1.437 1.715 1.437.259 0 .399-.034.64-.086.626-.193 1.248-.678 1.493-1.316.052-.155.103-.332.103-.662.019-.382.019-.761 0-1.159-.399-.036-.78-.051-1.177-.051zm-3.952-1.822c.016-.227.035-.832.434-1.386.623-.867 1.681-1.024 1.974-1.076.174-.017.556-.071 1.023-.071.347 0 .607 0 .955.07.363.052 1.592.227 2.06 1.405.21.536.226 1.109.226 1.696v3.432c.017.901.051 1.163.311 2.029h-1.68l-.155-.902c-.851.711-1.458 1.161-2.6 1.161-.193 0-.711-.018-1.233-.206-1.471-.52-1.698-1.888-1.698-2.442 0-1.043.554-1.909 1.455-2.413.883-.5 1.96-.5366 4.056-.467.034-.865.034-1.506-.692-1.977-.174-.103-.626-.328-1.181-.328-.849 0-1.282.468-1.437.761-.086.159-.138.348-.226.731l-1.594-.018m10.632-1.454c.867-.621 1.544-1.076 2.669-1.076 1.076 0 2.22.591 2.616 1.63.173.468.191.938.226 1.473v5.544h-1.558v-5.04c-.072-.779-.158-1.5585-.783-2.0617-.155-.122-.501-.347-1.001-.347-.211 0-.68.052-1.128.4-.833.607-.903 1.508-.937 2.533V51.3h-1.612v-4.66l-.0855-3.7785h1.5925v.8812m9.932 3.7778c.327.902.431 1.3375.623 2.2542l2.528-6.9135h1.769l-4.802 11.646h-1.6835l1.354-3.3986-3.138-8.2317h1.751c.312.987.641 1.958.972 2.927l.627 1.716m-54.3-21.829c0 1.261-.139 1.746-.401 2.13-.69 1.074-1.99 1.091-2.424 1.091-2.6146 0-2.719-1.718-2.719-3.084V17.97h-2.686v7.721c0 1.163.037 2.1306.64 3.0796 1.182 1.8933 3.466 2.1682 4.715 2.1682 2.529 0 5.49-1.1918 5.49-4.9204V17.97h-2.615v7.7208m9.826-4.1625c-1.906 0-2.597 1.1287-2.842 1.5246l-.07-1.317h-2.46c.052.609.052 1.557.052 1.595v7.189h2.585v-5.129c0-.677.154-1.109.308-1.337.279-.415.782-.676 1.331-.676.663 0 1.063.365 1.252.744.136.278.136.591.136.957v5.441h2.619v-4.734c0-1.627-.052-2.078-.242-2.615-.225-.606-.955-1.644-2.668-1.644m4.862 8.991h2.562v-8.767H85.36zm8.505-2.809l-1.977-5.941h-2.74l3.207 8.751h2.8413l3.154-8.751h-2.478l-2.009 5.941m7.517-2.527c.052-1.023.518-1.96 1.647-1.96 1.487 0 1.524 1.559 1.524 1.959zm1.73-3.71c-.952 0-1.783.277-2.457.73-1.472 1.02-1.821 2.717-1.821 4.139 0 1.403.33 2.581 1.127 3.414.916.95 2.341 1.088 3.088 1.088 1.279 0 2.42-.345 3.064-1.02.71-.748.796-1.489.83-1.909h-2.338c-.241.973-.884 1.214-1.525 1.214-1.785 0-1.785-1.767-1.785-2.336h5.874c.036-.731.068-2.012-.518-3.208-.796-1.626-2.287-2.114-3.537-2.114m8.038 1.942l-.051-1.68h-2.408c.052.5.12 1.766.12 2.18v6.603h2.563V26.2c0-1.091.159-2.425 2.756-2.183v-2.303c-2.076-.1035-2.647.9527-2.98 1.6985m9.092 1.905l-1.574-.432c-.763-.2105-1.19-.3308-1.19-.92 0-.537.516-.867 1.206-.867.401 0 1.18.0727 1.251 1.039h2.338c-.0706-1.746-1.5237-2.577-3.326-2.577-2.269 0-3.828 1.04-3.828 2.734 0 1.783 1.505 2.217 2.219 2.427l1.592.434c1.006.278 1.211.59 1.211.989 0 .519-.432 1.0377-1.351 1.0377-1.077 0-1.418-.6367-1.452-1.1945h-2.413c.02.416.072 1.109.642 1.715.796.832 1.872 1.071 2.999 1.071 2.72 0 4.017-1.5037 4.017-3.012 0-1.197-.746-2.01-2.341-2.442m3.971 5.198h2.564V21.75h-2.564zm8.219-11.814l-2.548.465v2.6524H128.2v1.697h1.6823v4.798c0 .73 0 2.359 2.5844 2.359.4166 0 1.1613-.055 1.9893-.276v-1.684c-.308.036-.484.054-.8653.054-1.1396 0-1.1396-.503-1.1604-1.301v-3.95h2.0817V21.82h-2.0817v-3.117m-6.91-.824c-.7646 0-1.3802.6176-1.3802 1.378 0 .7606.616 1.3824 1.381 1.3824.763 0 1.379-.621 1.379-1.382 0-.76-.615-1.378-1.378-1.378m-38.881 0c-.763 0-1.381.618-1.381 1.378 0 .761.619 1.383 1.382 1.383.762 0 1.381-.6217 1.381-1.382 0-.7607-.619-1.378-1.38-1.378m51.573 3.8382l2.251 6.047 2.187-6.0463h2.651l-5.042 12.027h-2.6l1.544-3.483-3.657-8.544h2.668m13.93 1.888c-.242.2062-.364.3802-.433.467-.296.47-.486 1.178-.486 2.255 0 .085-.069 1.37.608 2.149.052.0503.226.243.363.3263.193.124.539.297 1.004.297.088 0 .28-.018.488-.088.591-.19.935-.64 1.092-.916.432-.7485.415-2.0313.415-2.0834 0-.137 0-1.022-.294-1.68-.136-.313-.293-.485-.399-.589-.157-.171-.312-.277-.396-.311-.142-.085-.538-.243-.992-.209-.465.034-.794.243-.968.382zm4.315-.9c.155.1553.52.588.764 1.0553.172.3478.295.7978.31.866.072.242.192.7454.192 1.404 0 .348-.032.679-.088 1.021-.118.835-.413 1.7516-1.262 2.5694-.677.64-1.63 1.159-3.19 1.159-1.49 0-2.39-.43-3.066-1.005-.313-.294-.52-.539-.59-.6233-.468-.6404-.83-1.578-.83-3.051 0-.366 0-1.074.417-2.011.154-.399.309-.692.657-1.0737.64-.728 1.68-1.4026 3.257-1.473.314-.0176 1.579-.07 2.722.6226.157.088.26.174.399.278l.312.2612m7.521-2.7907c-.571-.018-1.021 0-1.248.051-.5.141-.5.693-.5.989v.797h1.627v1.682h-1.614v7.106h-2.493v-7.108h-1.612V21.75h1.631v-1.005c0-.069.018-.745.207-1.232.399-1.005 1.265-1.3345 2.807-1.3345.4 0 .8.034 1.215.052l-.018 1.682m11.509 3.37c-1.801-.453-2.716-.655-2.716-1.817 0-1.022.812-1.697 2.06-1.697 1.852 0 1.994 1.473 2.027 1.905h2.58c0-.419 0-1.4244-.709-2.324-.939-1.1776-2.479-1.4724-3.779-1.4724-3.479 0-4.953 1.819-4.953 3.882 0 2.163 1.625 3.048 4.608 3.793 1.596.381 2.379.573 2.379 1.68 0 1.057-.921 1.75-2.378 1.75-2.304 0-2.27-1.788-2.27-2.376h-2.735c.014 1.218.05 4.3 4.848 4.3 3.464 0 5.338-1.82 5.338-4.07 0-2.441-2.132-3.032-4.299-3.551m9.423-4.021l-2.547.937v1.72h-1.679v1.693h1.679v4.8c0 .726 0 2.354 2.583 2.354.414 0 1.164-.05 1.99-.275v-1.681c-.31.033-.484.05-.862.05-1.146 0-1.146-.5-1.163-1.3v-3.949h2.08V21.92h-2.08v-2.657m11.641 8.3705v-5.771h-2.636v4.42c0 1.487 0 2.719-1.645 2.719-1.369 0-1.369-1.1582-1.369-1.923v-5.215h-2.596v5.443c0 .4298 0 1.643.571 2.354.486.642 1.455 1.177 2.635 1.177 1.663 0 2.322-1.008 2.582-1.385l.084 1.16h2.497c-.037-.2394-.052-.395-.069-.639 0-.2254-.019-.4514-.052-2.3384m11.969-8.371l-2.55.937v1.718h-3.76v-2.654l-2.544.937v1.718h-1.684v1.696h1.684v4.799c0 .726 0 2.353 2.581 2.353.415 0 1.161-.049 1.989-.274V28.81c-.307.0377-.484.055-.864.055-1.142 0-1.142-.5027-1.163-1.302v-3.947h3.76v4.7983c0 .7256 0 2.3532 2.582 2.3532.416 0 1.161-.0496 1.995-.274V28.811c-.314.0376-.488.0548-.868.0548-1.142 0-1.142-.5025-1.16-1.302v-3.947h2.08V21.921h-2.08v-2.6542m7.515 9.4248c-1.714 0-1.714-2.1136-1.714-2.5464 0-1.873.799-2.6156 1.764-2.6156 1.563 0 1.752 1.6807 1.752 2.6672 0 .3812 0 2.4948-1.801 2.4948zm1.907-5.6297c-.26-.382-.848-1.248-2.442-1.248-2.51 0-3.741 2.111-3.741 4.33 0 2.115 1.179 4.297 3.691 4.297.624 0 1.54-.12 2.356-1.198-.02 1.337-.02 1.647-.123 2.078-.172.78-.832 1.145-1.598 1.145-1.364 0-1.485-.951-1.517-1.21h-2.464c.156 2.65 2.6 2.806 3.848 2.806 1.676 0 4.366-.314 4.366-3.535v-6.466c0-.881.053-1.471.119-2.164h-2.409l-.085 1.161m8.737 5.597c-.242.275-.624.5-1.09.5-.853 0-1.249-.655-1.249-1.248 0-1.039 1.177-1.559 2.827-1.422 0 .936-.04 1.614-.487 2.169zm2.912-3.778c0-.398-.018-1.437-.61-2.148-.861-1.005-2.389-1.127-3.117-1.127-.828 0-1.852.139-2.651.712-.917.659-.972 1.591-.985 2.063h2.508c0-.21 0-.489.195-.781.2258-.331.603-.489.971-.489.24 0 .9216.088 1.144.729.103.311.1216.589.1216 1.159-.851 0-2.389 0-3.467.488-1.616.745-1.854 2.023-1.854 2.722 0 .687.239 1.401.764 1.921.3456.328.916.69 2.18.69.487 0 1.648 0 2.6176-1.404 0 .262 0 .659.088 1.196h2.324c-.159-.728-.209-1.474-.209-2.215l-.018-3.519m13.185-1.264v-1.69h-2.08v-2.654l-2.55.934v1.72h-1.681l.002.007c-1.66.06-2.181.904-2.476 1.586l-.05-1.68h-2.412c.056.501.123 1.765.123 2.178v6.602h2.566v-4.311c0-1.093-.042-2.686 2.752-2.686h1.177v4.798c0 .725 0 2.353 2.581 2.353.419 0 1.165-.05 1.995-.274V28.81c-.309.037-.485.052-.867.052-1.145 0-1.145-.5-1.16-1.3v-3.947h2.08"/></g></svg>